<svg width="142.819336" height="3359.832764" viewBox="0 0 142.819 3359.83" fill="none" xmlns="http://www.w3.org/2000/svg" xmlns:xlink="http://www.w3.org/1999/xlink">
	<desc>
			Created with Pixso.
	</desc>
	<defs>
		<clipPath id="clip10_5">
			<rect id="svg" width="142.819336" height="3359.832764" fill="white" fill-opacity="0"/>
		</clipPath>
	</defs>
	<g clip-path="url(#clip10_5)">
		<path id="Star 6" d="M100.16 58.23L74.26 65.1L98.4 76.75L105.27 102.65L116.91 78.51L142.81 71.64L118.68 60L111.81 34.09L100.16 58.23ZM111.53 36.96L100.87 59.08L77.13 65.37L99.25 76.05L105.54 99.78L116.21 77.66L139.95 71.37L117.83 60.7L111.53 36.96Z" fill="#BCEC30" fill-opacity="1.000000" fill-rule="evenodd"/>
		<path id="Star 7" d="M43.48 12.14L30.16 15.27L42.31 21.56L45.43 34.87L51.73 22.73L65.04 19.6L52.9 13.31L49.77 0L43.48 12.14ZM49.41 2.85L44.15 13.01L33.02 15.62L43.17 20.88L45.79 32L51.05 21.86L62.18 19.25L52.03 13.99L49.41 2.85Z" fill="#BCEC30" fill-opacity="1.000000" fill-rule="evenodd"/>
		<path id="Star 8" d="M95.18 3296.01L70 3305.33L95.18 3314.65L104.5 3339.83L113.81 3314.65L139 3305.33L113.81 3296.01L104.5 3270.83L95.18 3296.01ZM104.5 3273.71L95.96 3296.79L72.88 3305.33L95.96 3313.87L104.5 3336.95L113.04 3313.87L136.11 3305.33L113.04 3296.79L104.5 3273.71Z" fill="#BCEC30" fill-opacity="1.000000" fill-rule="evenodd"/>
		<path id="Star 10" d="M14.96 3333.8L0 3339.33L14.96 3344.87L20.5 3359.83L26.03 3344.87L41 3339.33L26.03 3333.8L20.5 3318.83L14.96 3333.8ZM20.5 3321.71L15.74 3334.57L2.87 3339.33L15.74 3344.09L20.5 3356.95L25.25 3344.09L38.11 3339.33L25.25 3334.57L20.5 3321.71Z" fill="#BCEC30" fill-opacity="1.000000" fill-rule="evenodd"/>
	</g>
</svg>
