<svg width="425.266602" height="704.422607" viewBox="0 0 425.267 704.423" fill="none" xmlns="http://www.w3.org/2000/svg" xmlns:xlink="http://www.w3.org/1999/xlink">
	<desc>
			Created with Pixso.
	</desc>
	<defs>
		<clipPath id="clip5_3">
			<rect id="svg" width="425.266602" height="704.422607" fill="white" fill-opacity="0"/>
		</clipPath>
	</defs>
	<g clip-path="url(#clip5_3)">
		<path id="Star 2" d="M17.5 180.42L12.77 193.19L0 197.92L12.77 202.64L17.5 215.42L22.22 202.64L35 197.92L22.22 193.19L17.5 180.42Z" fill="#BCEC30" fill-opacity="1.000000" fill-rule="evenodd"/>
		<path id="Star 2" d="M12.77 193.19L0 197.92L12.77 202.64L17.5 215.42L22.22 202.64L35 197.92L22.22 193.19L17.5 180.42L12.77 193.19ZM17.5 183.3L13.55 193.97L2.87 197.92L13.55 201.87L17.5 212.54L21.43 201.87L32.1 197.92L21.43 193.97L17.5 183.3Z" fill="#202027" fill-opacity="1.000000" fill-rule="evenodd"/>
		<path id="Star 3" d="M61.65 155.08L54 157.92L61.65 160.75L64.5 168.42L67.33 160.75L75 157.92L67.33 155.08L64.5 147.42L61.65 155.08ZM64.5 150.3L62.43 155.86L56.87 157.92L62.43 159.98L64.5 165.54L66.55 159.98L72.1 157.92L66.55 155.86L64.5 150.3Z" fill="#202027" fill-opacity="1.000000" fill-rule="evenodd"/>
		<path id="Star 5" d="M244 640.41L241.56 646.98L235 649.41L241.56 651.84L244 658.41L246.43 651.84L253 649.41L246.43 646.98L244 640.41Z" fill="#BCEC30" fill-opacity="1.000000" fill-rule="evenodd"/>
		<path id="Star 5" d="M241.56 646.98L235 649.41L241.56 651.84L244 658.41L246.43 651.84L253 649.41L246.43 646.98L244 640.41L241.56 646.98ZM244 643.29L242.34 647.76L237.88 649.41L242.34 651.06L244 655.53L245.65 651.06L250.11 649.41L245.65 647.76L244 643.29Z" fill="#202027" fill-opacity="1.000000" fill-rule="evenodd"/>
		<path id="Star 4" d="M280.23 678.37L266 683.91L280.23 689.44L285.5 704.41L290.76 689.44L305 683.91L290.76 678.37L285.5 663.41L280.23 678.37ZM285.5 666.42L281.01 679.14L268.75 683.91L281.01 688.68L285.5 701.4L289.97 688.68L302.24 683.91L289.97 679.14L285.5 666.42Z" fill="#202027" fill-opacity="1.000000" fill-rule="evenodd"/>
		<path id="Vector" d="M341.22 93.53C344.07 94.31 423.28 127.34 423.28 127.34L339.24 136.24L392.33 203.49L317.48 157.56L309.85 235.41L288.76 153.42L218.44 192.42L266.88 135.17L180.91 131.31L261.72 107.41L201.67 39.19L286.09 78.37L305.4 2.78L314.07 78.53L390.97 26.28L341.22 93.53Z" fill="#BCEC30" fill-opacity="1.000000" fill-rule="nonzero"/>
		<path id="Vector" d="M423.28 127.34L339.24 136.24L392.33 203.49L317.48 157.56L309.85 235.41L288.76 153.42L218.44 192.42L266.88 135.17L180.91 131.31L261.72 107.41L201.67 39.19L286.09 78.37L305.4 2.78L314.07 78.53L390.97 26.28L341.22 93.53C344.07 94.31 423.28 127.34 423.28 127.34Z" fill="#000000" fill-opacity="0" fill-rule="nonzero"/>
		<path id="Vector" d="M339.24 136.24L392.33 203.49L317.48 157.56L309.85 235.41L288.76 153.42L218.44 192.42L266.88 135.17L180.91 131.31L261.72 107.41L201.67 39.19L286.09 78.37L305.4 2.78L314.07 78.53L390.97 26.28L341.22 93.53C344.07 94.31 423.28 127.34 423.28 127.34L339.24 136.24Z" stroke="#202027" stroke-opacity="1.000000" stroke-width="0.999999"/>
	</g>
</svg>
